# Blender v2.83.3 OBJ File: 'HelixJumpAssets.blend'
# www.blender.org
mtllib HalfDisc.mtl
v -0.176152 0.584778 -0.146288
v -0.181014 0.775158 -0.141427
v -0.186755 0.584778 -0.135685
v -0.186755 0.775158 -0.135685
v -0.219544 0.584778 -0.071334
v -0.228496 0.584778 -0.014810
v -0.219544 0.775158 -0.071334
v -0.229572 0.775158 -0.008019
v -0.230842 0.584778 0.000000
v -0.230842 0.775158 0.000000
v -0.219544 0.584778 0.071334
v -0.219544 0.775158 0.071334
v -0.212736 0.584778 -0.084694
v -0.215857 0.775158 -0.078568
v -0.221889 0.584778 0.056524
v -0.220814 0.775158 0.063315
v -0.667107 0.744854 -0.435909
v -0.667107 0.584778 -0.435909
v -0.667107 0.775158 -0.435909
v -0.507610 0.584778 -0.368800
v -0.735966 0.584778 -0.237516
v -0.735746 0.584778 -0.239058
v -0.723472 0.650674 -0.325285
v -0.723472 0.584778 -0.325285
v -0.723472 0.775158 -0.325285
v -0.769775 0.775158 0.000000
v -0.735746 0.775158 -0.239058
v -0.769711 0.775158 -0.000455
v -0.769775 0.584778 -0.000000
v -0.785109 0.775158 0.107723
v -0.785109 0.692425 0.107723
v -0.785109 0.584778 0.107723
v -0.162428 0.584778 -0.223562
v -0.160813 0.584778 -0.222883
v -0.507610 0.775158 -0.368800
v -0.162428 0.775158 -0.223562
v -0.160813 0.775158 -0.222883
v -0.170980 0.584778 -0.151460
v -0.160997 0.584778 -0.221593
v -0.160997 0.775158 -0.221593
v -0.206373 0.584778 0.097182
v -0.208364 0.584778 0.111163
v -0.206373 0.775158 0.097182
v -0.170980 0.775158 -0.151460
v -0.208364 0.775158 0.111163
v -0.416387 0.584778 0.135293
v -0.774170 0.775158 0.176793
v -0.774170 0.639377 0.176793
v -0.774170 0.584778 0.176793
v -0.416387 0.775158 0.135292
vt 0.459954 0.500000
vt 0.592743 0.500000
vt 0.592743 0.500965
vt 0.592743 0.553453
vt 0.459954 0.553453
vt 0.459954 0.500965
vt 0.592743 0.750000
vt 0.459954 0.750000
vt 0.459954 0.739537
vt 0.592743 0.739537
vt 0.592743 0.838607
vt 0.592743 0.991004
vt 0.498037 0.991004
vt 0.459954 0.991004
vt 0.459954 0.838607
vt 0.459954 0.165657
vt 0.459954 0.165046
vt 0.459954 0.070984
vt 0.459954 0.028324
vt 0.535037 0.028324
vt 0.592743 0.028324
vt 0.592743 0.070984
vt 0.592743 0.071164
vt 0.592743 0.165657
vt 0.592743 0.199804
vt 0.505916 0.199804
vt 0.459954 0.199804
vt 0.459954 0.499259
vt 0.459954 0.340807
vt 0.459954 0.267592
vt 0.571606 0.267592
vt 0.592743 0.267592
vt 0.592743 0.340807
vt 0.592743 0.499259
vt 0.879102 0.792032
vt 0.799938 0.792032
vt 0.799938 0.887125
vt 0.888612 0.887125
vt 0.999749 0.792032
vt 0.979008 0.792032
vt 0.988518 0.887125
vt 0.999749 0.887125
vt 0.899843 0.792032
vt 0.899843 0.887125
vt 0.100600 0.792032
vt 0.079858 0.792032
vt 0.089368 0.887125
vt 0.100600 0.887125
vt 0.779197 0.792032
vt 0.769079 0.792032
vt 0.769079 0.887125
vt 0.788707 0.887125
vt 0.000694 0.792032
vt 0.000694 0.887125
vt 0.627859 0.439840
vt 0.636004 0.455826
vt 0.757746 0.416270
vt 0.629090 0.431194
vt 0.399768 0.638210
vt 0.400653 0.636992
vt 0.394479 0.593617
vt 0.391280 0.590418
vt 0.384723 0.583861
vt 0.186284 0.728035
vt 0.024144 0.499944
vt 0.357456 0.499944
vt 0.362993 0.464986
vt 0.364444 0.455826
vt 0.242703 0.416270
vt 0.021426 0.390603
vt 0.014660 0.433321
vt 0.815841 0.999431
vt 0.865264 0.999431
vt 0.865264 0.653659
vt 0.815841 0.159467
vt 0.600680 0.638210
vt 0.599795 0.636992
vt 0.599682 0.637790
vt 0.044110 0.999431
vt 0.071948 0.999431
vt 0.071948 0.712933
vt 0.044110 0.434580
vt 0.976305 0.499944
vt 0.642992 0.499944
vt 0.642206 0.504904
vt 0.636004 0.544062
vt 0.955259 0.647794
vt 0.976265 0.500225
vt 0.071947 0.000454
vt 0.044110 0.000454
vt 0.045189 0.647794
vt 0.364444 0.544062
vt 0.358907 0.509103
vt 0.045054 0.646840
vt 0.368654 0.552325
vt 0.052780 0.701122
vt 0.087641 0.769539
vt 0.633725 0.548536
vt 0.615726 0.583861
vt 0.814164 0.728035
vt 0.912808 0.769539
vt 0.947668 0.701122
vt 0.400767 0.637790
vt 0.612175 0.587412
vt 0.605970 0.593617
vt 0.140728 0.792032
vt 0.140728 0.887125
vt 0.865263 0.000454
vt 0.815840 0.000454
vt 0.372589 0.439840
vt 0.371358 0.431194
vt 0.636790 0.460786
vt 0.985788 0.433320
vt 0.979022 0.390603
vn 0.9900 0.0000 0.1409
vn 0.1152 -0.0000 0.9933
vn -0.9900 -0.0000 -0.1409
vn 0.3878 -0.0000 -0.9217
vn 0.6300 -0.7071 0.3210
vn 0.5405 -0.7441 0.3927
vn 0.5405 0.7441 0.3927
vn 0.6300 0.7071 0.3210
vn 0.6681 -0.7441 0.0000
vn 0.6984 -0.7071 0.1106
vn 0.6984 0.7071 0.1106
vn 0.6681 0.7441 0.0000
vn 0.6354 -0.7441 0.2065
vn 0.6354 0.7441 0.2065
vn 0.6354 -0.7441 -0.2065
vn 0.6984 -0.7071 -0.1106
vn 0.6985 0.7071 -0.1106
vn 0.6354 0.7441 -0.2065
vn 0.5000 -0.7071 0.5000
vn 0.3765 -0.8465 0.3765
vn 0.3765 0.8465 0.3765
vn 0.5000 0.7071 0.5000
vn 0.4701 0.8495 -0.2395
vn 0.0000 1.0000 0.0000
vn 0.0001 -1.0000 -0.0000
vn 0.0001 -1.0000 -0.0001
vn 0.0000 -1.0000 -0.0000
vn -0.8910 0.0000 -0.4540
vn -0.0001 1.0000 0.0001
vn -0.9877 -0.0000 0.1564
vn 0.0004 -1.0000 -0.0003
vn 0.4701 -0.8495 -0.2395
usemtl Default_Material
s off
f 34/1/1 37/2/1 40/3/1 44/4/1 38/5/1 39/6/1
f 45/7/1 42/8/1 41/9/1 43/10/1
f 42/8/2 45/7/2 50/11/2 47/12/2 48/13/2 49/14/2 46/15/2
f 22/16/3 21/17/3 29/18/3 32/19/3 31/20/3 30/21/3 26/22/3 28/23/3 27/24/3 25/25/3 23/26/3 24/27/3
f 37/2/4 34/1/4 33/28/4 20/29/4 18/30/4 17/31/4 19/32/4 35/33/4 36/34/4
s 1
f 13/35/5 3/36/6 4/37/7 14/38/8
f 9/39/9 6/40/10 8/41/11 10/42/12
f 6/40/10 5/43/13 7/44/14 8/41/11
f 5/43/13 13/35/5 14/38/8 7/44/14
f 11/45/15 15/46/16 16/47/17 12/48/18
f 1/49/19 38/50/20 44/51/21 2/52/22
f 3/36/6 1/49/19 2/52/22 4/37/7
f 15/46/16 9/53/9 10/54/12 16/47/17
f 43/55/23 12/56/18 50/57/24 45/58/24
f 33/59/25 39/60/26 38/61/20 1/62/19 3/63/6 20/64/27
f 29/65/27 9/66/9 15/67/16 11/68/15 46/69/27 49/70/27 32/71/27
f 18/72/28 24/73/28 23/74/28 17/75/28
f 36/76/24 40/77/24 37/78/29
f 32/79/30 49/80/30 48/81/30 31/82/30
f 26/83/24 10/84/12 8/85/11 7/86/14 27/87/24 28/88/24
f 31/82/30 48/81/30 47/89/30 30/90/30
f 22/91/27 5/92/13 6/93/10 9/66/9 29/65/27 21/94/27
f 20/64/27 3/63/6 13/95/5 5/92/13 22/91/27 24/96/27 18/97/27
f 27/87/24 7/86/14 14/98/8 4/99/7 35/100/24 19/101/24 25/102/24
f 39/60/26 33/59/25 34/103/31
f 35/100/24 4/99/7 2/104/22 44/105/21 40/77/24 36/76/24
f 41/106/32 11/45/15 12/48/18 43/107/23
f 17/75/28 23/74/28 25/108/28 19/109/28
f 46/69/27 11/68/15 41/110/32 42/111/27
f 50/57/24 12/56/18 16/112/17 10/84/12 26/83/24 30/113/24 47/114/24
